PathFileType	4	(X/Y/Z)	C:/Users/opensim2020/Desktop/walking_exp_matlab/subject03_walking05_straight_01.trc																																																																																																																																					
DataRate	CameraRate	NumFrames	NumMarkers	Units	OrigDataRate	OrigDataStartFrame	OrigNumFrames																																																																																																																																	
100	100	4	45	mm	100	764	298																																																																																																																																	
Frame#	Time	LFHD			RFHD			LBHD			RBHD			C7			T10			CLAV			STRN			RBAK			LSHO			LUPA			LELB			LFRM			LWRA			LWRB			LFIN			RSHO			RUPA			RELB			RFRM			RWRA			RWRB			RFIN			LASI			RASI			LPSI			RPSI			LTHI			LKNE			LTIB			LANK			LHEE			LTOE			RTHI			RKNE			RTIB			RANK			RHEE			RTOE			*39			*40			*41			*42			*43			*44		
		X1	Y1	Z1	X2	Y2	Z2	X3	Y3	Z3	X4	Y4	Z4	X5	Y5	Z5	X6	Y6	Z6	X7	Y7	Z7	X8	Y8	Z8	X9	Y9	Z9	X10	Y10	Z10	X11	Y11	Z11	X12	Y12	Z12	X13	Y13	Z13	X14	Y14	Z14	X15	Y15	Z15	X16	Y16	Z16	X17	Y17	Z17	X18	Y18	Z18	X19	Y19	Z19	X20	Y20	Z20	X21	Y21	Z21	X22	Y22	Z22	X23	Y23	Z23	X24	Y24	Z24	X25	Y25	Z25	X26	Y26	Z26	X27	Y27	Z27	X28	Y28	Z28	X29	Y29	Z29	X30	Y30	Z30	X31	Y31	Z31	X32	Y32	Z32	X33	Y33	Z33	X34	Y34	Z34	X35	Y35	Z35	X36	Y36	Z36	X37	Y37	Z37	X38	Y38	Z38	X39	Y39	Z39	X40	Y40	Z40	X41	Y41	Z41	X42	Y42	Z42	X43	Y43	Z43	X44	Y44	Z44	X45	Y45	Z45
																																																																																																																																								
38	0.37	-978.8399	1620.66943	-1084.48352	-1002.73138	1632.05383	-953.62018	-1101.43604	1565.25281	-1098.86304	-1120.96497	1576.74695	-969.20856	-1129.56641	1418.10571	-1037.5957	-1182.07434	1110.43628	-1035.76636	-1012.34149	1336.92957	-1018.55707	-977.40826	1168.70679	-1019.19586	-1200.77246	1247.0658	-945.8219	-1028.79272	1374.32275	-1179.11682	-1047.78674	1175.57874	-1248.97522	-1056.77734	1052.96619	-1260.6637	-1052.24329	921.95093	-1258.45947	-1062.27185	801.27509	-1228.51843	-1071.16418	811.33142	-1283.58569	-1080.27686	725.15131	-1272.52747	-1076.26941	1364.16406	-866.62976	-1080.60791	1141.79553	-794.74292	-1062.50073	1030.51538	-780.31635	-1036.18469	896.10944	-777.79517	-994.67511	804.39087	-811.68494	-1029.2699	795.86096	-771.16522	-1000.40613	726.91241	-780.88922	-1019.40576	941.32458	-1140.20923	-1042.82874	930.27844	-904.80914	-1184.0647	971.45691	-1105.63538	-1194.8125	969.64349	-956.37238	-1060.5863	640.55817	-1183.60498	-1044.60095	465.7634	-1136.10266	-1078.87122	272.98419	-1140.89709	-1089.51196	64.34338	-1100.20789	-1132.28381	29.65608	-1069.36108	-939.24634	30.59604	-1069.4679	-1081.92969	633.336	-861.20624	-1046.34131	456.66418	-876.89722	-1197.96387	344.32407	-884.0061	-1370.70532	219.90315	-935.1424	-1415.66016	235.44162	-993.47046	-1330.20178	80.63448	-946.2146	NaN	NaN	NaN	NaN	NaN	NaN	NaN	NaN	NaN	NaN	NaN	NaN	NaN	NaN	NaN	NaN	NaN	NaN
39	0.38	-970.74188	1621.2959	-1083.77136	-994.71033	1632.58948	-952.93591	-1093.42407	1566.17102	-1098.38513	-1113.08899	1577.54932	-968.77411	-1122.06311	1418.60461	-1037.32275	-1173.50098	1110.77734	-1036.15125	-1004.65662	1337.75427	-1018.45367	-969.27014	1169.60901	-1019.44019	-1192.96973	1247.16699	-946.09076	-1021.54376	1375.42822	-1178.84167	-1036.58081	1176.64441	-1248.93323	-1041.86633	1053.82483	-1260.61511	-1033.9762	923.0426	-1258.54114	-1041.32532	802.20837	-1228.99927	-1049.76782	812.04999	-1284.02319	-1055.39111	725.88428	-1273.61914	-1069.18909	1364.64087	-866.37085	-1073.98865	1142.18958	-794.61444	-1055.69434	1030.94141	-780.10266	-1029.95349	896.43652	-777.14008	-988.34106	804.71625	-810.24762	-1023.57172	796.20685	-770.13062	-994.88593	727.17169	-779.2395	-1011.00348	941.59875	-1141.26831	-1033.46753	931.60529	-905.98279	-1175.41479	971.66876	-1105.6853	-1185.51855	970.47491	-956.33533	-1052.55566	641.43134	-1183.56323	-1039.83032	465.14752	-1135.5697	-1075.40759	273.32883	-1141.02856	-1089.5592	64.08862	-1099.79761	-1132.25879	29.77574	-1069.25183	-939.12872	30.54755	-1069.19507	-1066.81653	634.87726	-861.41223	-1027.15393	458.91318	-877.93402	-1176.71094	344.16132	-884.66193	-1347.95764	217.35707	-934.98102	-1394.22302	231.53099	-992.85687	-1302.77087	79.91946	-946.24463	NaN	NaN	NaN	NaN	NaN	NaN	NaN	NaN	NaN	NaN	NaN	NaN	NaN	NaN	NaN	NaN	NaN	NaN
40	0.39	-962.66577	1621.84705	-1082.99109	-986.76379	1633.00964	-952.11932	-1085.44885	1567.08301	-1097.89258	-1105.22046	1578.2428	-968.30634	-1114.66394	1419.08093	-1037.07983	-1164.98376	1110.88171	-1036.46411	-997.06543	1338.44836	-1018.21149	-961.08228	1170.45337	-1019.72192	-1185.14478	1247.18555	-946.22662	-1014.29321	1376.55994	-1178.63135	-1025.54004	1177.81616	-1249.09094	-1027.02051	1054.88184	-1260.74146	-1015.62048	924.44733	-1258.68018	-1019.93524	803.54242	-1229.36377	-1028.09827	813.15802	-1284.41162	-1030.08545	727.14465	-1274.60107	-1062.02576	1365.02881	-866.15875	-1067.51807	1142.4823	-794.39203	-1049.06714	1031.36206	-779.71399	-1023.64508	896.76282	-776.57031	-982.61456	804.64587	-809.17578	-1017.77936	796.5365	-769.15833	-989.22986	727.46075	-777.8219	-1002.56097	941.646	-1142.25439	-1024.07837	932.8114	-907.03912	-1166.61987	971.70605	-1105.71033	-1176.427	971.33032	-956.26794	-1045.8092	641.1853	-1183.07434	-1035.04712	464.60806	-1135.07227	-1072.98071	272.97186	-1140.57935	-1089.03455	64.55405	-1099.97571	-1132.18823	29.88215	-1069.18506	-939.08893	30.43878	-1069.01538	-1050.96069	636.10645	-862.27405	-1008.2619	461.28308	-879.02612	-1155.41028	343.62418	-885.30005	-1324.56018	213.75578	-934.85541	-1372.50037	226.47058	-992.19849	-1273.96558	78.7878	-946.3457	NaN	NaN	NaN	NaN	NaN	NaN	NaN	NaN	NaN	NaN	NaN	NaN	NaN	NaN	NaN	NaN	NaN	NaN
41	0.4	-954.61938	1622.3114	-1082.16797	-978.76917	1633.2738	-951.30719	-1077.49658	1567.94739	-1097.30847	-1097.38611	1578.8623	-967.75659	-1107.15796	1419.41101	-1036.82361	-1156.4679	1111.0387	-1036.79114	-989.47864	1338.97473	-1017.90643	-952.92102	1171.18542	-1020.10675	-1177.23254	1247.13428	-946.26849	-1007.10992	1377.6095	-1178.30811	-1014.45428	1178.96631	-1248.89685	-1012.4342	1056.13953	-1260.9165	-997.25696	926.198	-1258.72864	-998.32196	805.2572	-1229.64282	-1006.23993	814.66443	-1284.69812	-1003.27417	729.89166	-1275.51904	-1054.73535	1365.33386	-865.96075	-1060.8468	1142.76819	-794.17383	-1042.48022	1031.65417	-779.31146	-1017.52216	896.97687	-775.84454	-976.45294	804.73676	-808.08466	-1011.9776	796.75458	-768.30151	-983.44751	727.68665	-776.33563	-994.04138	941.58691	-1143.28418	-1013.92737	934.11102	-907.57483	-1157.96765	971.73169	-1105.77478	-1167.146	971.94135	-956.39435	-1038.91113	640.90198	-1182.69592	-1030.15735	464.57092	-1135.01807	-1070.42432	272.77005	-1140.46228	-1088.22888	64.7828	-1099.71082	-1132.17078	30.05062	-1069.09985	-939.0412	30.41276	-1068.86462	-1036.36914	637.90466	-862.50439	-989.63843	463.80661	-880.19037	-1134.01318	342.7413	-885.89154	-1300.76099	209.38165	-934.66791	-1349.89502	219.85759	-991.26166	-1243.45129	77.47301	-946.1264	NaN	NaN	NaN	NaN	NaN	NaN	NaN	NaN	NaN	NaN	NaN	NaN	NaN	NaN	NaN	NaN	NaN	NaN
